<?xml version="1.0" standalone="no"?>
<!DOCTYPE svg PUBLIC "-//W3C//DTD SVG 20010904//EN"
 "http://www.w3.org/TR/2001/REC-SVG-20010904/DTD/svg10.dtd">
<svg version="1.0" xmlns="http://www.w3.org/2000/svg"
 width="851.000000pt" height="851.000000pt" viewBox="0 0 851.000000 851.000000"
 preserveAspectRatio="xMidYMid meet">
<metadata>
Created by potrace 1.11, written by Peter Selinger 2001-2013
</metadata>
<g transform="translate(0.000000,851.000000) scale(0.100000,-0.100000)"
fill="#000000" stroke="none">
<path d="M4355 5694 c-34 -17 -165 -141 -462 -438 l-414 -414 -373 373 c-226
224 -389 379 -411 389 -52 25 -126 28 -188 8 -49 -15 -115 -79 -1258 -1221
-822 -823 -1211 -1219 -1224 -1246 -11 -23 -20 -66 -22 -102 -3 -93 43 -171
132 -221 28 -16 305 -17 4199 -20 l4168 -2 -1127 1126 c-621 619 -1145 1137
-1167 1150 -53 34 -132 41 -199 19 -46 -16 -76 -41 -241 -204 l-189 -186 -482
483 c-340 340 -495 489 -527 504 -65 33 -153 34 -215 2z"/>
</g>
</svg>
